<svg xmlns="http://www.w3.org/2000/svg" viewBox="0 0 64 64" id="ai"><g><path fill="#bf5900" d="M11 3h46v54H11z"></path><path fill="#f7fcff" d="M53 17v44H7V7h36l10 10z"></path><path fill="#fa0" d="M7 7v18h46v-8L43 7H7z"></path><path fill="#ff7600" d="M53 17h-8a2 2 0 0 1-2-2V7Z"></path><circle cx="42" cy="38" r="2" fill="#fa0"></circle><circle cx="18" cy="38" r="2" fill="#fa0"></circle><path fill="#fa0" d="M28 36h4v4h-4zM37 46h4v4h-4zM19 46h4v4h-4z"></path><g fill="#1e120b"><path d="M42 35a3 3 0 0 0-2.816 2H33v-1a1 1 0 0 0-1-1h-4a1 1 0 0 0-1 1v1h-6.184a3 3 0 1 0 0 2h3.291a10.428 10.428 0 0 0-3.849 6H19a1 1 0 0 0-1 1v4a1 1 0 0 0 1 1h4a1 1 0 0 0 1-1v-4a1 1 0 0 0-1-1h-.675A8.282 8.282 0 0 1 27 39.612V40a1 1 0 0 0 1 1h4a1 1 0 0 0 1-1v-.388A8.282 8.282 0 0 1 37.675 45H37a1 1 0 0 0-1 1v4a1 1 0 0 0 1 1h4a1 1 0 0 0 1-1v-4a1 1 0 0 0-1-1h-1.258a10.428 10.428 0 0 0-3.849-6h3.291A2.995 2.995 0 1 0 42 35zm-24 4a1 1 0 1 1 1-1 1 1 0 0 1-1 1zm4 10h-2v-2h2zm9-10h-2v-2h2zm7 8h2v2h-2zm4-8a1 1 0 1 1 1-1 1 1 0 0 1-1 1zM21 10a4 4 0 0 0-4 4v7a1 1 0 0 0 2 0v-3h4v3a1 1 0 0 0 2 0v-7a4 4 0 0 0-4-4zm2 6h-4v-2a2 2 0 0 1 4 0zm11-4a1 1 0 0 0 0-2h-6a1 1 0 0 0 0 2h2v8h-2a1 1 0 0 0 0 2h6a1 1 0 0 0 0-2h-2v-8z"></path><circle cx="53" cy="43" r="1"></circle><path d="M57 2H11a1 1 0 0 0-1 1v3H7a1 1 0 0 0-1 1v54a1 1 0 0 0 1 1h46a1 1 0 0 0 1-1v-3h3a1 1 0 0 0 1-1V3a1 1 0 0 0-1-1ZM8 8h34v7a3 3 0 0 0 3 3h7v6H8Zm36 7V9.414L50.586 16H45a1 1 0 0 1-1-1Zm12 41h-2v-9a1 1 0 0 0-2 0v13H8V26h44v13a1 1 0 0 0 2 0V17a1 1 0 0 0-.293-.707l-10-10A1 1 0 0 0 43 6H12V4h44Z"></path></g></g></svg>