<svg xmlns="http://www.w3.org/2000/svg" viewBox="0 0 96 96" id="processor-chip"><g><rect width="70.4" height="70.4" x="12.83" y="12.8" fill="#40e0d0" rx="4"></rect><path d="M79,12.8H76.69a.2.2,0,0,0-.2.2V74.6a4.2,4.2,0,0,1-4.2,4.2H13a.2.2,0,0,0-.2.2h0A4.2,4.2,0,0,0,17,83.2H79a4.2,4.2,0,0,0,4.2-4.2V17A4.2,4.2,0,0,0,79,12.8Z" opacity=".3"></path><path d="M80.84 13.15a3.7 3.7 0 0 0-.73-.25A2.63 2.63 0 0 1 80.84 13.15zM13.41 81.24a2.49 2.49 0 0 1-.22-.43A2.49 2.49 0 0 0 13.41 81.24z" opacity=".1"></path><rect width="7.7" height="9.72" x="12.83" y="41.4" fill="#fff" opacity=".4" rx="3.85"></rect><path fill="#fff" d="M56.88,16.1h0a3.3,3.3,0,0,1-3.3,3.3H25.87a5.34,5.34,0,0,0-5.34,5.34v8a4,4,0,0,1-4,4.11A3.87,3.87,0,0,1,12.83,33V18.14a5.34,5.34,0,0,1,5.34-5.34H53.58A3.3,3.3,0,0,1,56.88,16.1Z" opacity=".4"></path><path fill="#72b5b7" d="M75.53 22.5a2 2 0 0 1-1.41-3.41 2 2 0 0 1 2.82 0 2 2 0 0 1-1.41 3.41zM75.53 78.6a2 2 0 0 1-1.42-3.41 1.79 1.79 0 0 1 .31-.25 1.48 1.48 0 0 1 .35-.19 1.58 1.58 0 0 1 .37-.11 2 2 0 0 1 2.39 2 1.72 1.72 0 0 1 0 .39 1.82 1.82 0 0 1-.11.38 1.63 1.63 0 0 1-.19.34A1.76 1.76 0 0 1 77 78 2 2 0 0 1 75.53 78.6zM20.53 22.5a1.72 1.72 0 0 1-.39 0 2.72 2.72 0 0 1-.38-.11 2.27 2.27 0 0 1-.34-.19 1.42 1.42 0 0 1-.3-.25 2 2 0 0 1-.59-1.41 1.72 1.72 0 0 1 0-.39 2.72 2.72 0 0 1 .11-.38 2.27 2.27 0 0 1 .19-.34 2.16 2.16 0 0 1 .55-.55 2.27 2.27 0 0 1 .34-.19 2.72 2.72 0 0 1 .38-.11 2 2 0 0 1 1.8.55 1.42 1.42 0 0 1 .25.3 2.27 2.27 0 0 1 .19.34 2.72 2.72 0 0 1 .11.38 1.72 1.72 0 0 1 0 .39 2 2 0 0 1-2 2zM20.53 78.6a2 2 0 0 1-1.41-3.41 2 2 0 0 1 2.82 0 2 2 0 0 1-1.41 3.41z"></path><path fill="#633a82" d="M65.63,35.76v19a4,4,0,0,0-1.1-.14,4.4,4.4,0,0,0-4.4,4.4,3.64,3.64,0,0,0,.07.74H45.51A2.51,2.51,0,0,0,43,62.25v.83a2.51,2.51,0,0,1-2.52,2.52H35.79a4,4,0,0,0,.14-1.1,4.4,4.4,0,0,0-4.4-4.4,4,4,0,0,0-1.1.14V35.76a4,4,0,0,0,1.1.14,4.4,4.4,0,0,0,4.4-4.4,4,4,0,0,0-.14-1.1H60.27a4,4,0,0,0-.14,1.1,4.4,4.4,0,0,0,4.4,4.4A4,4,0,0,0,65.63,35.76Z"></path><path fill="#f1fcfc" d="M68.93 31.5a4.4 4.4 0 0 1-3.3 4.26 4 4 0 0 1-1.1.14 4.4 4.4 0 0 1-4.4-4.4 4 4 0 0 1 .14-1.1 4.4 4.4 0 0 1 8.66 1.1zM35.93 31.5a4.4 4.4 0 0 1-4.4 4.4 4 4 0 0 1-1.1-.14 4.4 4.4 0 1 1 5.36-5.36A4 4 0 0 1 35.93 31.5zM68.93 59a4.4 4.4 0 0 1-8.73.74 3.64 3.64 0 0 1-.07-.74 4.4 4.4 0 0 1 4.4-4.4 4 4 0 0 1 1.1.14A4.4 4.4 0 0 1 68.93 59zM35.93 64.5a4 4 0 0 1-.14 1.1 4.4 4.4 0 1 1-5.36-5.36 4 4 0 0 1 1.1-.14A4.4 4.4 0 0 1 35.93 64.5z"></path><g><path fill="none" stroke="#192965" stroke-linecap="round" stroke-linejoin="round" stroke-width="4" d="M83.23 37.84V79.2a4 4 0 0 1-4 4H72.11M53.53 12.8h25.7a4 4 0 0 1 4 4V30.4M12.83 30.4V16.8a4 4 0 0 1 4-4H45.48M64.53 83.2H16.83a4 4 0 0 1-4-4V36.84"></path><line x1="75.53" x2="75.53" y1="20.5" y2="20.5" fill="none" stroke="#192965" stroke-linecap="round" stroke-linejoin="round" stroke-width="4"></line><line x1="75.53" x2="75.53" y1="76.6" y2="76.6" fill="none" stroke="#192965" stroke-linecap="round" stroke-linejoin="round" stroke-width="4"></line><line x1="20.53" x2="20.53" y1="20.5" y2="20.5" fill="none" stroke="#192965" stroke-linecap="round" stroke-linejoin="round" stroke-width="4"></line><line x1="20.53" x2="20.53" y1="76.6" y2="76.6" fill="none" stroke="#192965" stroke-linecap="round" stroke-linejoin="round" stroke-width="4"></line><path fill="none" stroke="#192965" stroke-linecap="round" stroke-linejoin="round" stroke-width="4" d="M43.6 30.4H60.27a4 4 0 0 0-.14 1.1 4.4 4.4 0 0 0 4.4 4.4 4 4 0 0 0 1.1-.14V48M65.63 54.74a4 4 0 0 0-1.1-.14 4.4 4.4 0 0 0-4.4 4.4 3.64 3.64 0 0 0 .07.74H45.51A2.51 2.51 0 0 0 43 62.25v.83a2.51 2.51 0 0 1-2.52 2.52H35.79a4 4 0 0 0 .14-1.1 4.4 4.4 0 0 0-4.4-4.4 4 4 0 0 0-1.1.14V35.76a4 4 0 0 0 1.1.14 4.4 4.4 0 0 0 4.4-4.4 4 4 0 0 0-.14-1.1"></path><line x1="39.23" x2="54.63" y1="39.2" y2="39.2" fill="none" stroke="#192965" stroke-linecap="round" stroke-linejoin="round" stroke-width="4"></line><line x1="39.23" x2="49.13" y1="48" y2="48" fill="none" stroke="#192965" stroke-linecap="round" stroke-linejoin="round" stroke-width="4"></line><path fill="none" stroke="#192965" stroke-linecap="round" stroke-linejoin="round" stroke-width="4" d="M68.93 31.5a4.4 4.4 0 0 1-3.3 4.26 4 4 0 0 1-1.1.14 4.4 4.4 0 0 1-4.4-4.4 4 4 0 0 1 .14-1.1 4.4 4.4 0 0 1 8.66 1.1zM35.93 31.5a4.4 4.4 0 0 1-4.4 4.4 4 4 0 0 1-1.1-.14 4.4 4.4 0 1 1 5.36-5.36A4 4 0 0 1 35.93 31.5zM68.93 59a4.4 4.4 0 0 1-8.73.74 3.64 3.64 0 0 1-.07-.74 4.4 4.4 0 0 1 4.4-4.4 4 4 0 0 1 1.1.14A4.4 4.4 0 0 1 68.93 59zM34.93 61.7a4.43 4.43 0 0 1 1 2.8 4 4 0 0 1-.14 1.1 4.4 4.4 0 1 1-5.36-5.36 4 4 0 0 1 1.1-.14 4.39 4.39 0 0 1 3.4 1.6"></path><line x1="20.53" x2="20.53" y1="4" y2="12.8" fill="none" stroke="#192965" stroke-linecap="round" stroke-linejoin="round" stroke-width="4"></line><line x1="31.53" x2="31.53" y1="4" y2="12.8" fill="none" stroke="#192965" stroke-linecap="round" stroke-linejoin="round" stroke-width="4"></line><line x1="42.53" x2="42.53" y1="4" y2="12.8" fill="none" stroke="#192965" stroke-linecap="round" stroke-linejoin="round" stroke-width="4"></line><line x1="53.53" x2="53.53" y1="4" y2="12.8" fill="none" stroke="#192965" stroke-linecap="round" stroke-linejoin="round" stroke-width="4"></line><line x1="64.53" x2="64.53" y1="4" y2="12.8" fill="none" stroke="#192965" stroke-linecap="round" stroke-linejoin="round" stroke-width="4"></line><line x1="75.53" x2="75.53" y1="4" y2="12.8" fill="none" stroke="#192965" stroke-linecap="round" stroke-linejoin="round" stroke-width="4"></line><line x1="83.23" x2="92.03" y1="74.4" y2="74.4" fill="none" stroke="#192965" stroke-linecap="round" stroke-linejoin="round" stroke-width="4"></line><line x1="83.23" x2="92.03" y1="63.4" y2="63.4" fill="none" stroke="#192965" stroke-linecap="round" stroke-linejoin="round" stroke-width="4"></line><line x1="83.23" x2="92.03" y1="52.4" y2="52.4" fill="none" stroke="#192965" stroke-linecap="round" stroke-linejoin="round" stroke-width="4"></line><line x1="83.23" x2="92.03" y1="41.4" y2="41.4" fill="none" stroke="#192965" stroke-linecap="round" stroke-linejoin="round" stroke-width="4"></line><line x1="83.23" x2="92.03" y1="30.4" y2="30.4" fill="none" stroke="#192965" stroke-linecap="round" stroke-linejoin="round" stroke-width="4"></line><line x1="83.23" x2="92.03" y1="19.4" y2="19.4" fill="none" stroke="#192965" stroke-linecap="round" stroke-linejoin="round" stroke-width="4"></line><line x1="4.03" x2="12.83" y1="74.4" y2="74.4" fill="none" stroke="#192965" stroke-linecap="round" stroke-linejoin="round" stroke-width="4"></line><line x1="4.03" x2="12.83" y1="63.4" y2="63.4" fill="none" stroke="#192965" stroke-linecap="round" stroke-linejoin="round" stroke-width="4"></line><line x1="4.03" x2="12.83" y1="52.4" y2="52.4" fill="none" stroke="#192965" stroke-linecap="round" stroke-linejoin="round" stroke-width="4"></line><line x1="4.03" x2="12.83" y1="41.4" y2="41.4" fill="none" stroke="#192965" stroke-linecap="round" stroke-linejoin="round" stroke-width="4"></line><line x1="4.03" x2="12.83" y1="30.4" y2="30.4" fill="none" stroke="#192965" stroke-linecap="round" stroke-linejoin="round" stroke-width="4"></line><line x1="4.03" x2="12.83" y1="19.4" y2="19.4" fill="none" stroke="#192965" stroke-linecap="round" stroke-linejoin="round" stroke-width="4"></line><line x1="20.53" x2="20.53" y1="83.2" y2="92" fill="none" stroke="#192965" stroke-linecap="round" stroke-linejoin="round" stroke-width="4"></line><line x1="31.53" x2="31.53" y1="83.2" y2="92" fill="none" stroke="#192965" stroke-linecap="round" stroke-linejoin="round" stroke-width="4"></line><line x1="42.53" x2="42.53" y1="83.2" y2="92" fill="none" stroke="#192965" stroke-linecap="round" stroke-linejoin="round" stroke-width="4"></line><line x1="53.53" x2="53.53" y1="83.2" y2="92" fill="none" stroke="#192965" stroke-linecap="round" stroke-linejoin="round" stroke-width="4"></line><line x1="64.53" x2="64.53" y1="83.2" y2="92" fill="none" stroke="#192965" stroke-linecap="round" stroke-linejoin="round" stroke-width="4"></line><line x1="75.53" x2="75.53" y1="83.2" y2="92" fill="none" stroke="#192965" stroke-linecap="round" stroke-linejoin="round" stroke-width="4"></line></g></g></svg>