<svg xmlns="http://www.w3.org/2000/svg" viewBox="0 0 512 512" id="transfer"><polyline fill="#006df0" points="472.25 39.75 496.25 39.75 496.25 88.75 496.25 295.75 304.25 295.75 304.25 271.75"></polyline><path fill="#ffda44" d="M244.613,398.209A35.308,35.308,0,0,1,209.4,452.1a35.307,35.307,0,0,1-65.146,25.734A35.315,35.315,0,0,1,79.1,452.1a35.3,35.3,0,0,1-35.214-53.895,35.3,35.3,0,0,1,0-68.918A35.308,35.308,0,0,1,79.1,275.4a35.31,35.31,0,0,1,65.152-25.734A35.312,35.312,0,0,1,209.4,275.4a35.3,35.3,0,0,1,35.214,53.895,35.3,35.3,0,0,1,0,68.918Z"></path><polygon fill="#78b9eb" points="272 272 464 272 464 16 320 16 272 65 272 272"></polygon><polyline fill="#006df0" points="280.25 63.75 328.25 63.75 328.25 15.75"></polyline><polygon fill="#57565c" points="192.25 143.75 192.25 119.75 160.25 119.75 160.25 199.75 128.25 199.75 128.25 87.75 192.25 87.75 192.25 63.75 240.25 103.75 192.25 143.75"></polygon><polygon fill="#57565c" points="352.25 383.75 352.25 407.75 384.25 407.75 384.25 327.75 416.25 327.75 416.25 439.75 352.25 439.75 352.25 463.75 304.25 423.75 352.25 383.75"></polygon><g><path d="M280,364a43.634,43.634,0,0,0-24.55-39.02,43.342,43.342,0,0,0-37.22-57.61v-.44A43.3,43.3,0,0,0,144,236.63a43.3,43.3,0,0,0-74.23,30.3v.44a43.342,43.342,0,0,0-37.22,57.61,43.284,43.284,0,0,0,0,78.04,43.342,43.342,0,0,0,37.22,57.61v.44A43.3,43.3,0,0,0,144,491.37a43.3,43.3,0,0,0,74.23-30.3v-.44a43.342,43.342,0,0,0,37.22-57.61A43.634,43.634,0,0,0,280,364ZM135.95,475.95a27.294,27.294,0,0,1-49.73-19.81,39.024,39.024,0,0,0,20-23.68,8,8,0,1,0-15.34-4.56,23.01,23.01,0,0,1-21.93,16.34c-.25,0-.5.02-.75.04a27.313,27.313,0,0,1-17.83-41.51,7.989,7.989,0,0,0-5.01-12.12,27.305,27.305,0,0,1,0-53.3,7.989,7.989,0,0,0,5.01-12.12A27.313,27.313,0,0,1,68.2,283.72c.25.02.5.04.75.04A23.01,23.01,0,0,1,90.88,300.1a8.018,8.018,0,0,0,7.67,5.72,8.218,8.218,0,0,0,2.28-.33,8.005,8.005,0,0,0,5.39-9.95,39.024,39.024,0,0,0-20-23.68,27.295,27.295,0,0,1,49.73-19.81Zm106.69-85.3a7.989,7.989,0,0,0-5.01,12.12,27.315,27.315,0,0,1-17.77,41.5c-.18-.01-.35-.03-.52-.03A23.013,23.013,0,0,1,197.4,427.9a8,8,0,0,0-15.34,4.56,39.02,39.02,0,0,0,19.7,23.53,27.67,27.67,0,0,1,.47,5.08,27.3,27.3,0,0,1-50.28,14.74V252.19a27.3,27.3,0,0,1,50.28,14.74,27.67,27.67,0,0,1-.47,5.08,39.02,39.02,0,0,0-19.7,23.53,8.005,8.005,0,0,0,5.39,9.95,8.218,8.218,0,0,0,2.28.33,8.018,8.018,0,0,0,7.67-5.72,23.013,23.013,0,0,1,21.94-16.34c.17,0,.34-.02.52-.03a27.315,27.315,0,0,1,17.77,41.5,7.989,7.989,0,0,0,5.01,12.12,27.305,27.305,0,0,1,0,53.3Z"></path><path d="M105.141 326.806c-6.906-.423-13.527 3.44-20.153 11.754a84.089 84.089 0 00-9.41-5.715 8 8 0 00-7.168 14.3 78.124 78.124 0 0114.569 10.088C88.919 362.487 96 370.7 96 380a8 8 0 0016 0c0-12.728-6.914-23.308-14.719-31.206 4.036-5.154 6.362-5.908 6.807-6a3.475 3.475 0 01.844.955 1.564 1.564 0 01-.087-.166l14.31-7.156C118.693 335.5 114.376 327.381 105.141 326.806zM222.06 343.239a55.321 55.321 0 00-7.776 2.557c-8.736-15.305-24.861-14.452-33.862-9.951a8 8 0 007.081 14.347 14.691 14.691 0 015.86-1.186c2.177.076 4.961.762 7.324 5.276C187.933 365.643 184 381.713 184 391a7.981 7.981 0 007.955 7.977H192a8.02 8.02 0 008-7.933c.012-1.057.583-25.943 25.94-32.283a8 8 0 00-3.88-15.522zM496 32H480V16a8 8 0 00-8-8H328a8 8 0 00-5.71 2.4l-48 49A8 8 0 00272 65V272a8 8 0 008 8h16v16a8 8 0 008 8H496a8 8 0 008-8V40A8 8 0 00496 32zM320 35.6V56H300.02zM288 264V72h40a8 8 0 008-8V24H464V264zm200 24H312v-8H472a8 8 0 008-8V48h8zM128 208h32a8 8 0 008-8V128h16v16a8 8 0 0013.121 6.146l48-40a8 8 0 000-12.292l-48-40A8 8 0 00184 64V80H128a8 8 0 00-8 8V200A8 8 0 00128 208zm8-112h56a8 8 0 008-8V81.08L227.5 104 200 126.92V120a8 8 0 00-8-8H160a8 8 0 00-8 8v72H136zM416 320H384a8 8 0 00-8 8v72H360V384a8 8 0 00-13.121-6.146l-48 40a8 8 0 000 12.292l48 40A8 8 0 00360 464V448h56a8 8 0 008-8V328A8 8 0 00416 320zm-8 112H352a8 8 0 00-8 8v6.92L316.5 424 344 401.08V408a8 8 0 008 8h32a8 8 0 008-8V336h16z"></path></g></svg>